<svg width="32" height="32" viewBox="0 0 32 32" fill="none" xmlns="http://www.w3.org/2000/svg">
<path d="M11.4149 16.0007L22.7078 4.70802C22.8906 4.51955 22.992 4.26672 22.99 4.00415C22.988 3.74158 22.8829 3.49032 22.6972 3.30464C22.5115 3.11896 22.2603 3.01375 21.9977 3.01175C21.7351 3.00974 21.4823 3.11109 21.2938 3.29392L9.29381 15.2939C9.10631 15.4814 9.00098 15.7358 9.00098 16.001C9.00098 16.2662 9.10631 16.5205 9.29381 16.708L21.2938 28.708C21.3861 28.8032 21.4965 28.8791 21.6184 28.9312C21.7403 28.9833 21.8714 29.0107 22.004 29.0117C22.1366 29.0127 22.2681 28.9873 22.3908 28.937C22.5135 28.8867 22.6249 28.8126 22.7187 28.7188C22.8125 28.625 22.8866 28.5136 22.9369 28.3909C22.9872 28.2682 23.0126 28.1367 23.0115 28.0041C23.0105 27.8715 22.9832 27.7404 22.931 27.6185C22.8789 27.4966 22.803 27.3862 22.7078 27.2939L11.4149 16.0007Z" fill="#0F0F0F"/>
</svg>
