<svg width="32" height="32" viewBox="0 0 32 32" fill="none" xmlns="http://www.w3.org/2000/svg">
<path d="M25.9369 8.98808L18.9408 3.95518C18.0876 3.33244 17.0587 2.99662 16.0023 2.99609C14.946 2.99557 13.9168 3.33038 13.0629 3.95228L6.058 8.99128C5.42153 9.45641 4.90355 10.0649 4.54601 10.7675C4.18847 11.4701 4.00142 12.247 4 13.0353V23.9981C4.00156 25.3237 4.52885 26.5945 5.46619 27.5319C6.40353 28.4692 7.6744 28.9965 9 28.9981H12C12.5302 28.9974 13.0385 28.7865 13.4135 28.4115C13.7884 28.0366 13.9993 27.5283 14 26.9981V20.9981H18V26.9981C18.0007 27.5283 18.2117 28.0366 18.5866 28.4115C18.9615 28.7864 19.4698 28.9974 20 28.9981H23C24.3256 28.9965 25.5965 28.4692 26.5338 27.5319C27.4712 26.5945 27.9984 25.3237 28 23.9981V13.0353C27.9989 12.2459 27.8114 11.468 27.4529 10.7647C27.0944 10.0615 26.575 9.45274 25.9369 8.98808V8.98808ZM26 23.9981C25.9991 24.7935 25.6828 25.556 25.1204 26.1184C24.5579 26.6809 23.7954 26.9972 23 26.9981H20V20.9981C19.9993 20.4678 19.7884 19.9595 19.4135 19.5846C19.0386 19.2097 18.5302 18.9987 18 18.9981H14C13.4698 18.9988 12.9615 19.2097 12.5865 19.5846C12.2116 19.9595 12.0007 20.4679 12 20.9981V26.9981H9C8.20462 26.9972 7.44206 26.6809 6.87964 26.1184C6.31722 25.556 6.00087 24.7935 6 23.9981V13.0353C6.0005 12.563 6.11215 12.0976 6.32592 11.6765C6.53969 11.2554 6.84957 10.8906 7.2305 10.6115L14.2344 5.57238C14.748 5.19869 15.3669 4.99763 16.002 4.99815C16.6371 4.99867 17.2557 5.20075 17.7686 5.57528L24.7651 10.6081C25.1472 10.8871 25.4582 11.2523 25.6727 11.674C25.8873 12.0958 25.9994 12.5621 26 13.0353V23.9981Z" fill="#181818"/>
</svg>
