<svg width="32" height="32" viewBox="0 0 32 32" fill="none" xmlns="http://www.w3.org/2000/svg">
<path opacity="0.5" d="M16 2C13.231 2 10.5243 2.82108 8.222 4.35942C5.91972 5.89775 4.12531 8.08424 3.06569 10.6424C2.00607 13.2006 1.72882 16.0155 2.26901 18.7312C2.8092 21.4469 4.14257 23.9415 6.1005 25.8994C8.05842 27.8573 10.553 29.1907 13.2687 29.7309C15.9844 30.2711 18.7993 29.9938 21.3575 28.9342C23.9157 27.8746 26.1021 26.0802 27.6405 23.7779C29.1788 21.4756 29.9999 18.7689 29.9999 15.9999C29.9957 12.2882 28.5194 8.72968 25.8948 6.10509C23.2702 3.48049 19.7117 2.00416 16 2ZM16 27.9999C13.6266 27.9999 11.3065 27.2961 9.33314 25.9775C7.35975 24.659 5.82169 22.7848 4.91344 20.5921C4.00519 18.3994 3.76755 15.9866 4.23057 13.6589C4.6936 11.3311 5.83648 9.19292 7.5147 7.5147C9.19293 5.83647 11.3311 4.69359 13.6589 4.23057C15.9866 3.76755 18.3994 4.00519 20.5921 4.91343C22.7848 5.82168 24.659 7.35975 25.9775 9.33313C27.2961 11.3065 27.9999 13.6266 27.9999 15.9999C27.9964 19.1815 26.731 22.2317 24.4814 24.4814C22.2317 26.731 19.1815 27.9964 16 27.9999Z" fill="#181818"/>
<path d="M16 2C19.7117 2.00418 23.2699 3.48088 25.8945 6.10547C28.5191 8.73006 29.9958 12.2883 30 16H28C28 13.6266 27.2961 11.3064 25.9775 9.33301C24.659 7.35967 22.7845 5.82132 20.5918 4.91309C19.129 4.30723 17.5681 4.00099 16 4.00098V2Z" fill="black"/>
</svg>
